# Blender v2.82 (sub 7) OBJ File: ''
# www.blender.org
mtllib red_postbox.mtl
o Cube
v 1.000000 1.000000 -1.000000
v 1.000000 -1.000000 -1.000000
v 1.000000 1.000000 1.000000
v 1.000000 -1.000000 1.000000
v -1.000000 1.000000 -1.000000
v -1.000000 -1.000000 -1.000000
v -1.000000 1.000000 1.000000
v -1.000000 -1.000000 1.000000
vt 0.625000 0.500000
vt 0.875000 0.500000
vt 0.875000 0.750000
vt 0.625000 0.750000
vt 0.375000 0.750000
vt 0.625000 1.000000
vt 0.375000 1.000000
vt 0.375000 0.000000
vt 0.625000 0.000000
vt 0.625000 0.250000
vt 0.375000 0.250000
vt 0.125000 0.500000
vt 0.375000 0.500000
vt 0.125000 0.750000
vn 0.0000 1.0000 0.0000
vn 0.0000 0.0000 1.0000
vn -1.0000 0.0000 0.0000
vn 0.0000 -1.0000 0.0000
vn 1.0000 0.0000 0.0000
vn 0.0000 0.0000 -1.0000
usemtl Material
s off
f 1/1/1 5/2/1 7/3/1 3/4/1
f 4/5/2 3/4/2 7/6/2 8/7/2
f 8/8/3 7/9/3 5/10/3 6/11/3
f 6/12/4 2/13/4 4/5/4 8/14/4
f 2/13/5 1/1/5 3/4/5 4/5/5
f 6/11/6 5/10/6 1/1/6 2/13/6
o PostBox01_(1).001
v -16.851000 28.658899 0.056605
v -20.440599 24.841700 0.068804
v -10.158600 24.841696 17.753304
v -8.385100 28.658897 14.553305
v -10.158600 -0.735103 17.753300
v -10.158600 18.971395 17.753304
v -20.440599 18.971399 0.068803
v -20.440599 -0.735100 0.068800
v -22.138000 124.066200 0.073920
v -14.433500 126.550201 0.050621
v -7.246900 126.550201 -12.484779
v -11.119500 124.066200 -19.145279
v 10.297500 24.841696 17.691204
v 8.475000 28.658897 14.556805
v 10.297500 -0.735103 17.691200
v 10.297500 18.971395 17.691204
v -9.010900 131.911499 0.034021
v -4.521400 131.911499 -7.797079
v 20.471901 24.841700 -0.055496
v 16.834200 28.658899 -0.044495
v 20.471901 -0.735100 -0.055500
v 20.471901 18.971399 -0.055497
v 4.505300 131.911499 -7.824378
v 7.202300 126.550201 -12.528679
v 10.189900 24.841703 -17.739996
v 8.360300 28.658901 -14.649196
v 10.189900 -0.735097 -17.740000
v 10.189900 18.971403 -17.739996
v 11.034200 124.066200 -19.212479
v -10.266200 24.841703 -17.677896
v -8.455600 28.658901 -14.564896
v -10.266200 -0.735097 -17.677900
v -10.266200 18.971403 -17.677896
v 9.042400 131.911499 -0.020879
v 14.464800 126.550201 -0.037179
v 22.169201 124.066200 -0.060580
v -16.851700 116.356796 0.057819
v -8.373600 99.585503 14.639916
v -8.373600 116.356796 14.639919
v -22.138000 120.000000 0.073920
v -11.002900 120.000000 19.225819
v -11.002900 124.066200 19.225821
v -6.496200 94.756897 15.666215
v 6.467500 94.756897 15.640716
v 8.243100 96.984901 15.627916
v -8.271600 96.984901 15.679016
v 8.493600 99.585503 14.588516
v 8.493600 116.356796 14.588519
v 6.428200 106.840202 14.594817
v 6.428200 103.266998 14.594817
v 11.150800 120.000000 19.158619
v 11.150800 124.066200 19.158621
v -1.550400 137.198395 0.011322
v -0.763200 137.198395 1.365222
v 0.802700 137.198395 1.360622
v 16.882999 116.356796 -0.044681
v 22.169201 120.000000 -0.060580
v 1.581700 137.198395 0.001822
v 11.034200 120.000000 -19.212481
v 0.794500 137.198395 -1.351878
v -11.119500 120.000000 -19.145281
v -0.771400 137.198395 -1.347178
v -8.271600 76.260902 15.679012
v -6.496200 78.489098 15.666212
v 8.404900 116.356796 -14.626581
v 6.467500 78.489098 15.640713
v 8.242800 76.260902 15.627913
v -6.496200 94.756897 14.708315
v -6.496200 78.489098 14.708312
v 6.467500 78.489098 14.682612
v 6.467500 94.756897 14.682615
v -8.272000 76.260902 14.535812
v -8.272000 96.984901 14.535816
v 8.242600 96.984901 14.484616
v -9.891000 117.189201 17.286320
v -19.902300 117.189201 0.067119
v 10.026900 117.189201 17.225819
v 19.933599 117.189201 -0.053781
v 9.922300 117.189201 -17.272982
v -8.462300 116.356796 -14.575381
v -9.995600 117.189201 -17.212481
v -9.891000 119.117798 17.286320
v -19.902300 119.117798 0.067119
v 10.026900 119.117798 17.225819
v 19.933599 119.117798 -0.053781
v 9.922300 119.117798 -17.272982
v -9.995600 119.117798 -17.212481
v -7.171000 126.550201 12.541821
v -4.474000 131.911499 7.837721
v 7.278200 126.550201 12.497921
v 4.552700 131.911499 7.810122
v -6.308200 106.840202 11.894717
v -6.308200 104.476898 11.894717
v 6.428200 104.476898 11.856017
v 6.428200 106.840202 11.856017
v -6.308200 106.840202 14.633617
v -6.308200 103.266998 14.633617
v -1.542200 135.329605 2.723822
v -0.763200 135.804092 1.365222
v -1.550400 135.804092 0.011322
v -3.116300 135.329605 0.016022
v -3.116300 134.131500 0.016022
v -1.558600 135.329605 -2.701078
v -1.558600 134.131500 -2.701078
v 1.573500 135.329605 -2.710678
v 1.573500 134.131500 -2.710678
v 3.147900 135.329605 -0.002878
v 1.581700 135.804092 0.001822
v 0.802700 135.804092 1.360622
v 1.589900 135.329605 2.714222
v -0.771400 135.804092 -1.347178
v 0.794500 135.804092 -1.351878
v -20.440599 22.363199 0.068804
v -10.158600 22.363195 17.753304
v 10.297500 22.363195 17.691204
v 20.471901 22.363199 -0.055496
v 10.189900 22.363203 -17.739996
v -10.266200 22.363203 -17.677896
v -19.384199 21.420700 0.065503
v -9.633200 21.420698 16.836803
v 9.766500 21.420698 16.777905
v 19.415400 21.420700 -0.052397
v 9.664500 21.420702 -16.823696
v -9.735200 21.420702 -16.764597
v -9.633200 19.913898 16.836803
v -19.384199 19.913900 0.065503
v 9.766500 19.913898 16.777905
v 19.415400 19.913900 -0.052397
v 9.664500 19.913902 -16.823696
v -9.735200 19.913902 -16.764597
v -1.542200 134.131500 2.723822
v 1.589900 134.131500 2.714222
v 3.147900 134.131500 -0.002878
v 8.242600 76.260902 14.484612
vt 0.751100 0.794400
vt 0.883000 0.794400
vt 0.901100 0.817200
vt 0.733000 0.817100
vt 0.943600 0.387900
vt 0.970500 0.387900
vt 0.984000 0.411200
vt 0.970500 0.434600
vt 0.943600 0.434600
vt 0.930100 0.411200
vt 0.733000 0.606200
vt 0.751100 0.628900
vt 0.883000 0.628900
vt 0.901100 0.606100
vt 0.757400 0.784200
vt 0.757400 0.638400
vt 0.873600 0.638400
vt 0.873600 0.784200
vt 0.944700 0.600700
vt 0.970400 0.600700
vt 0.970400 0.715600
vt 0.944700 0.715600
vt 0.721400 0.606200
vt 0.721400 0.817100
vt 0.733000 0.828700
vt 0.901100 0.829300
vt 0.753300 0.491200
vt 0.739800 0.491200
vt 0.780700 0.421000
vt 0.787300 0.432700
vt 0.787500 0.550000
vt 0.780600 0.562100
vt 0.855400 0.549700
vt 0.861900 0.560900
vt 0.888700 0.491200
vt 0.902000 0.491200
vt 0.855000 0.432900
vt 0.861700 0.421400
vt 0.729700 0.491300
vt 0.775600 0.412400
vt 0.775700 0.570900
vt 0.867100 0.569400
vt 0.911900 0.491100
vt 0.866500 0.412700
vt 0.770100 0.402700
vt 0.718500 0.491300
vt 0.770100 0.580600
vt 0.872800 0.579100
vt 0.922600 0.491000
vt 0.872100 0.403200
vt 0.885800 0.874500
vt 0.885800 0.900000
vt 0.748300 0.900000
vt 0.748300 0.874500
vt 0.885900 0.844900
vt 0.748400 0.844900
vt 0.915300 0.874500
vt 0.915300 0.913000
vt 0.748400 0.932300
vt 0.885900 0.932300
vt 0.718800 0.874500
vt 0.718800 0.913000
vt 0.791500 0.443000
vt 0.806400 0.468200
vt 0.792700 0.491900
vt 0.763400 0.492500
vt 0.932700 0.331100
vt 0.932700 0.349900
vt 0.892900 0.349900
vt 0.892900 0.331100
vt 0.853100 0.349900
vt 0.853100 0.331100
vt 0.877100 0.491200
vt 0.847900 0.491500
vt 0.833800 0.467800
vt 0.848400 0.442400
vt 0.943600 0.363800
vt 0.916600 0.387900
vt 0.916600 0.363800
vt 0.889600 0.387900
vt 0.889600 0.363800
vt 0.862600 0.387900
vt 0.862600 0.363800
vt 0.835700 0.387900
vt 0.835700 0.363800
vt 0.808700 0.387900
vt 0.808700 0.363800
vt 0.970500 0.363800
vt 0.806600 0.515700
vt 0.792400 0.541400
vt 0.834200 0.515500
vt 0.849300 0.540700
vt 0.972500 0.331100
vt 0.972500 0.349900
vt 0.773500 0.331100
vt 0.773500 0.349900
vt 0.733700 0.349900
vt 0.733700 0.331100
vt 0.813300 0.331100
vt 0.813300 0.349900
vt 0.901100 0.594000
vt 0.733000 0.594600
vt 0.912800 0.817100
vt 0.912800 0.606200
vt 0.944700 0.456500
vt 0.970400 0.456500
vt 0.945400 0.858200
vt 0.971500 0.858200
vt 0.971500 0.976600
vt 0.945400 0.976600
vt 0.971100 0.858200
vt 0.013300 0.269100
vt 0.013300 0.240000
vt 0.128700 0.240000
vt 0.128400 0.269100
vt 0.127200 0.009300
vt 0.127200 0.160800
vt 0.010800 0.160800
vt 0.010800 0.009300
vt 0.989300 0.242800
vt 0.940400 0.214600
vt 0.940000 0.115000
vt 0.988400 0.086500
vt 0.244100 0.240000
vt 0.244100 0.269100
vt 0.243600 0.009300
vt 0.243600 0.160800
vt 0.898500 0.190400
vt 0.898900 0.141100
vt 0.359400 0.240000
vt 0.359400 0.269100
vt 0.360000 0.009300
vt 0.360000 0.160800
vt 0.854900 0.114500
vt 0.854700 0.066600
vt 0.474800 0.240000
vt 0.475100 0.269100
vt 0.476400 0.009300
vt 0.476400 0.160800
vt 0.854700 0.010700
vt 0.590100 0.240000
vt 0.590100 0.269100
vt 0.592800 0.009300
vt 0.592800 0.160800
vt 0.811800 0.140400
vt 0.769700 0.116100
vt 0.705500 0.240000
vt 0.705500 0.269100
vt 0.709200 0.009300
vt 0.709200 0.160800
vt 0.721300 0.088100
vt 0.017400 0.924900
vt 0.131700 0.805500
vt 0.131700 0.924900
vt 0.015700 0.978400
vt 0.015700 0.951000
vt 0.145900 0.951000
vt 0.145900 0.978400
vt 0.245900 0.805400
vt 0.246000 0.924900
vt 0.231900 0.857100
vt 0.231900 0.831700
vt 0.276000 0.951000
vt 0.276000 0.978400
vt 0.360200 0.924800
vt 0.406200 0.951000
vt 0.406200 0.978400
vt 0.245500 0.300500
vt 0.359500 0.300400
vt 0.536300 0.951000
vt 0.536300 0.978400
vt 0.131300 0.300600
vt 0.666400 0.951000
vt 0.666400 0.978400
vt 0.796600 0.951000
vt 0.796600 0.978400
vt 0.473900 0.300200
vt 0.474500 0.924600
vt 0.855800 0.263700
vt 0.853900 0.215200
vt 0.856400 0.320200
vt 0.721500 0.242500
vt 0.770300 0.214200
vt 0.812700 0.189800
vt 0.587800 0.300000
vt 0.588700 0.924400
vt 0.017600 0.300500
vt 0.702000 0.299800
vt 0.703000 0.924200
vt 0.145700 0.857100
vt 0.145700 0.831700
vt 0.013300 0.221100
vt 0.128700 0.221100
vt 0.244100 0.221100
vt 0.359400 0.221100
vt 0.474800 0.221100
vt 0.590100 0.221100
vt 0.705500 0.221100
vt 0.012200 0.207300
vt 0.012200 0.198600
vt 0.128200 0.198600
vt 0.128200 0.207300
vt 0.244300 0.198600
vt 0.244300 0.207300
vt 0.360300 0.198600
vt 0.360300 0.207300
vt 0.476300 0.198600
vt 0.476300 0.207300
vt 0.592400 0.198600
vt 0.592400 0.207300
vt 0.708400 0.198600
vt 0.708400 0.207300
vt 0.127200 0.172900
vt 0.010800 0.172900
vt 0.243600 0.172900
vt 0.360000 0.172900
vt 0.476400 0.172900
vt 0.592800 0.172900
vt 0.709200 0.172900
vt 0.128200 0.184600
vt 0.012200 0.184600
vt 0.244300 0.184600
vt 0.360300 0.184600
vt 0.476300 0.184600
vt 0.592400 0.184600
vt 0.708400 0.184600
vt 0.854600 0.182000
vt 0.869400 0.173600
vt 0.840700 0.173700
vt 0.841000 0.157200
vt 0.855400 0.149300
vt 0.869500 0.158000
vn 0.0026 -0.0000 1.0000
vn 0.0000 1.0000 0.0000
vn 0.0072 -0.0000 1.0000
vn 0.0020 -0.0000 1.0000
vn -1.0000 0.0000 0.0004
vn -0.2598 -0.9538 0.1510
vn 0.0009 -0.9538 0.3005
vn 0.2607 -0.9538 0.1495
vn 0.2598 -0.9538 -0.1510
vn -0.0009 -0.9538 -0.3005
vn -0.2607 -0.9538 -0.1495
vn -0.8645 -0.0000 0.5026
vn 0.0030 0.0000 1.0000
vn 0.8675 0.0000 0.4974
vn 0.8645 0.0000 -0.5026
vn -0.0030 0.0000 -1.0000
vn -0.8675 0.0000 -0.4974
vn -0.3585 -0.9100 0.2084
vn 0.0013 -0.9100 0.4146
vn 0.3597 -0.9100 0.2062
vn 0.3585 -0.9100 -0.2084
vn -0.0013 -0.9100 -0.4146
vn -0.3597 -0.9100 -0.2062
vn 0.0000 -1.0000 0.0000
vn 1.0000 0.0000 0.0000
vn 0.0012 0.9147 0.4041
vn -1.0000 0.0000 0.0000
vn -0.2855 0.9439 0.1660
vn -0.0031 0.0000 -1.0000
vn 0.2865 0.9439 0.1643
vn 0.0010 0.9439 0.3303
vn 0.8645 0.0000 -0.5027
vn 0.0029 -0.0000 1.0000
vn -0.2865 0.9439 -0.1643
vn -0.0010 0.9439 -0.3302
vn 0.2855 0.9439 -0.1660
vn 0.0031 0.0000 1.0000
vn 1.0000 -0.0000 -0.0003
vn -0.9088 0.4172 0.0028
vn -0.9425 0.3342 0.0028
vn -0.4678 0.3355 0.8177
vn -0.4536 0.4190 0.7865
vn -0.4974 0.0000 0.8675
vn -0.4627 0.3669 0.8070
vn -0.9302 0.3669 0.0028
vn -1.0000 0.0000 0.0030
vn -0.8583 0.5131 0.0026
vn -0.4588 0.8885 0.0014
vn -0.2306 0.8885 -0.3966
vn -0.4314 0.5131 -0.7420
vn 0.4734 0.3366 0.8140
vn 0.4558 0.4204 0.7845
vn 0.5026 0.0000 0.8645
vn 0.4675 0.3669 0.8042
vn -0.5846 0.8113 0.0018
vn -0.2938 0.8113 -0.5054
vn 0.9420 0.3355 -0.0029
vn 0.9079 0.4191 -0.0028
vn 1.0000 0.0000 -0.0030
vn 0.9302 0.3669 -0.0028
vn 0.2907 0.8113 -0.5071
vn 0.2282 0.8885 -0.3980
vn 0.4694 0.3344 -0.8171
vn 0.4500 0.4174 -0.7894
vn 0.4974 0.0000 -0.8675
vn 0.4627 0.3669 -0.8070
vn 0.4269 0.5131 -0.7446
vn -0.4739 0.3332 -0.8151
vn -0.4572 0.4159 -0.7861
vn -0.5026 0.0000 -0.8645
vn -0.4676 0.3669 -0.8042
vn 0.5846 0.8113 -0.0018
vn 0.4588 0.8885 -0.0014
vn 0.8583 0.5131 -0.0026
vn -0.6926 -0.7213 0.0021
vn -0.4973 -0.0003 0.8675
vn -0.3445 -0.7212 0.6009
vn -0.8706 -0.4919 0.0026
vn -0.4330 -0.4919 0.7553
vn -0.4269 0.5131 0.7446
vn 0.5024 -0.0004 0.8646
vn 0.3482 -0.7212 0.5988
vn -0.2989 -0.3023 0.9051
vn -0.2013 0.2546 0.9459
vn 0.4376 -0.4919 0.7526
vn 0.4314 0.5131 0.7420
vn 0.6926 -0.7213 -0.0020
vn 0.8706 -0.4919 -0.0026
vn 0.4330 -0.4919 -0.7553
vn -0.4376 -0.4919 -0.7526
vn 0.3444 -0.7213 -0.6008
vn -0.2282 0.8885 0.3980
vn -0.2907 0.8113 0.5071
vn 0.2306 0.8885 0.3966
vn 0.2938 0.8113 0.5054
vn -0.3483 -0.7211 -0.5988
vn 0.3041 -0.3007 0.9039
vn 0.2070 0.2535 0.9449
vn -0.9302 -0.3669 0.0028
vn -0.4627 -0.3669 0.8070
vn 0.4675 -0.3669 0.8042
vn 0.9302 -0.3669 -0.0028
vn 0.4627 -0.3669 -0.8070
vn -0.4676 -0.3669 -0.8042
vn -0.8841 -0.4672 0.0027
vn -0.4397 -0.4672 0.7670
vn 0.4443 -0.4673 0.7643
vn 0.8841 -0.4672 -0.0027
vn 0.4397 -0.4672 -0.7670
vn -0.4444 -0.4672 -0.7643
vn -0.4397 0.4672 0.7670
vn -0.8841 0.4672 0.0027
vn 0.4443 0.4673 0.7643
vn 0.8841 0.4672 -0.0027
vn 0.4397 0.4672 -0.7670
vn -0.4444 0.4672 -0.7643
vn -0.3676 0.6735 0.6412
vn -0.7392 0.6735 0.0022
vn 0.3715 0.6735 0.6390
vn 0.7392 0.6735 -0.0022
vn 0.3676 0.6735 -0.6413
vn -0.3715 0.6735 -0.6390
usemtl PostBox01.001
s off
f 51/15/7 52/16/7 53/17/7 54/18/7
f 61/19/8 62/20/8 63/21/8
f 61/19/8 63/21/8 66/22/8
f 61/19/8 66/22/8 68/23/8
f 61/19/8 68/23/8 70/24/8
f 71/25/9 72/26/9 51/15/9 54/18/9
f 53/17/9 52/16/9 74/27/9 75/28/9
f 76/29/10 77/30/10 78/31/10 79/32/10
f 75/28/7 74/27/7 72/26/7 71/25/7
f 77/33/8 72/34/8 74/35/8 78/36/8
f 80/37/11 71/25/11 54/18/11 81/38/11
f 81/39/8 54/18/8 53/17/8 82/40/8
f 47/41/12 83/42/12 84/43/12 45/44/12
f 56/45/13 85/46/13 83/42/13 47/41/13
f 64/47/14 86/48/14 85/46/14 56/45/14
f 73/49/15 87/50/15 86/48/15 64/47/15
f 88/51/16 89/52/16 87/50/16 73/49/16
f 45/44/17 84/43/17 89/52/17 88/51/17
f 83/42/18 90/53/18 91/54/18 84/43/18
f 85/46/19 92/55/19 90/53/19 83/42/19
f 86/48/20 93/56/20 92/55/20 85/46/20
f 87/50/21 94/57/21 93/56/21 86/48/21
f 89/52/22 95/58/22 94/57/22 87/50/22
f 84/43/23 91/54/23 95/58/23 89/52/23
f 48/59/24 91/54/24 90/53/24 49/60/24
f 49/60/25 90/53/25 92/55/25 59/61/25
f 59/61/26 92/55/26 93/56/26 65/62/26
f 65/62/27 93/56/27 94/57/27 67/63/27
f 67/63/28 94/57/28 95/58/28 69/64/28
f 69/64/29 95/58/29 91/54/29 48/59/29
f 100/65/19 101/66/19 102/67/19 103/68/19
f 104/69/30 100/65/30 103/68/30 57/70/30
f 104/71/31 105/72/31 101/66/31 100/65/31
f 58/73/32 102/67/32 101/66/32 105/74/32
f 57/75/33 103/68/33 102/67/33 58/76/33
f 106/77/34 107/78/34 108/79/34 109/80/34
f 110/81/23 109/82/23 111/83/23 112/84/23
f 112/84/35 111/83/35 113/85/35 114/86/35
f 115/87/36 116/88/36 117/89/36 118/90/36
f 118/90/37 117/89/37 107/78/37 106/77/37
f 108/91/23 61/19/23 70/92/23 119/93/23
f 119/93/22 70/92/22 68/94/22 120/95/22
f 120/95/38 68/94/38 66/96/38 116/97/38
f 116/97/20 66/96/20 63/98/20 117/99/20
f 117/99/39 63/98/39 62/100/39 107/101/39
f 107/102/18 62/20/18 61/19/18 108/91/18
f 109/80/40 108/79/40 119/103/40 111/104/40
f 111/104/41 119/103/41 120/105/41 113/106/41
f 113/106/42 120/105/42 116/88/42 115/87/42
f 139/107/18 106/108/18 109/82/18 110/81/18
f 140/109/43 118/110/43 106/111/43 139/112/43
f 141/113/20 115/114/20 118/110/20 140/109/20
f 114/86/21 113/85/21 115/114/21 141/113/21
f 142/115/30 75/28/30 71/25/30 80/116/30
f 82/117/44 53/17/44 75/28/44 142/118/44
f 76/119/31 51/120/31 72/34/31 77/33/31
f 79/121/30 52/122/30 51/123/30 76/124/30
f 78/36/33 74/35/33 52/125/33 79/121/33
s 1
f 9/126/45 10/127/46 11/128/47 12/129/48
f 13/130/49 14/131/50 15/132/51 16/133/52
f 17/134/53 18/135/54 19/136/55 20/137/56
f 12/129/48 11/128/47 21/138/57 22/139/58
f 23/140/59 24/141/60 14/131/50 13/130/49
f 18/135/54 25/142/61 26/143/62 19/136/55
f 27/144/63 28/145/64 22/139/58 21/138/57
f 29/146/65 30/147/66 24/141/60 23/140/59
f 19/136/55 26/143/62 31/148/67 32/149/68
f 33/150/69 34/151/70 28/145/64 27/144/63
f 35/152/71 36/153/72 30/147/66 29/146/65
f 20/137/56 19/136/55 32/149/68 37/154/73
f 38/155/74 39/156/75 34/151/70 33/150/69
f 40/157/76 41/158/77 36/153/72 35/152/71
f 32/149/68 31/148/67 42/159/78 43/160/79
f 10/161/46 9/162/45 39/156/75 38/155/74
f 16/163/52 15/164/51 41/158/77 40/157/76
f 37/154/73 32/149/68 43/160/79 44/165/80
f 45/166/81 46/167/82 47/168/83
f 17/169/53 48/170/84 49/171/85 50/172/86
f 55/173/87 56/174/88 57/175/89 58/176/90
f 50/172/86 49/171/85 59/177/91 60/178/92
f 56/174/88 55/173/87 64/179/93
f 59/177/91 65/180/94 44/181/80 60/178/92
f 55/173/87 22/182/58 28/183/64 64/179/93
f 44/181/80 65/180/94 67/184/95 37/185/73
f 22/182/58 55/173/87 46/167/82 12/186/48
f 37/185/73 67/184/95 69/187/96 20/188/56
f 20/188/56 69/187/96 48/189/84 17/190/53
f 64/179/93 28/183/64 34/191/70 73/192/97
f 96/193/98 97/194/99 25/142/61 18/135/54
f 50/195/86 96/193/98 18/135/54 17/134/53
f 60/196/92 98/197/100 96/193/98 50/195/86
f 98/197/100 99/198/101 97/194/99 96/193/98
f 44/165/80 43/160/79 98/197/100 60/196/92
f 43/160/79 42/159/78 99/198/101 98/197/100
f 73/192/97 34/191/70 39/199/75 88/200/102
f 9/201/45 12/186/48 46/167/82 45/166/81
f 88/200/102 39/199/75 9/202/45 45/203/81
f 47/168/83 104/204/103 57/175/89 56/174/88
f 55/173/87 58/176/90 105/205/104 46/167/82
f 46/167/82 105/205/104 104/204/103 47/168/83
f 10/127/46 121/206/105 122/207/106 11/128/47
f 11/128/47 122/207/106 123/208/107 21/138/57
f 21/138/57 123/208/107 124/209/108 27/144/63
f 27/144/63 124/209/108 125/210/109 33/150/69
f 33/150/69 125/210/109 126/211/110 38/155/74
f 38/155/74 126/211/110 121/212/105 10/161/46
f 121/213/105 127/214/111 128/215/112 122/216/106
f 122/216/106 128/215/112 129/217/113 123/218/107
f 123/218/107 129/217/113 130/219/114 124/220/108
f 124/220/108 130/219/114 131/221/115 125/222/109
f 125/222/109 131/221/115 132/223/116 126/224/110
f 126/224/110 132/223/116 127/225/111 121/226/105
f 14/131/50 133/227/117 134/228/118 15/132/51
f 24/141/60 135/229/119 133/227/117 14/131/50
f 30/147/66 136/230/120 135/229/119 24/141/60
f 36/153/72 137/231/121 136/230/120 30/147/66
f 41/158/77 138/232/122 137/231/121 36/153/72
f 15/164/51 134/233/118 138/232/122 41/158/77
f 133/234/117 128/215/112 127/214/111 134/235/118
f 135/236/119 129/217/113 128/215/112 133/234/117
f 136/237/120 130/219/114 129/217/113 135/236/119
f 137/238/121 131/221/115 130/219/114 136/237/120
f 138/239/122 132/223/116 131/221/115 137/238/121
f 134/240/118 127/225/111 132/223/116 138/239/122
f 97/194/99 139/241/123 110/242/124 25/142/61
f 99/198/101 140/243/125 139/241/123 97/194/99
f 42/159/78 141/244/126 140/243/125 99/198/101
f 31/148/67 114/245/127 141/244/126 42/159/78
f 26/143/62 112/246/128 114/245/127 31/148/67
f 25/142/61 110/242/124 112/246/128 26/143/62
